<svg width="60" height="49" viewBox="0 0 60 49" fill="none" xmlns="http://www.w3.org/2000/svg">
<path d="M43.6233 40.9616V16.1941H4.69177V40.9616C4.69177 42.0138 5.56323 42.8668 6.63835 42.8668H41.6767C42.7518 42.8668 43.6233 42.0138 43.6233 40.9616Z" fill="#289BC3"/>
<path d="M16.3741 37.1511H12.481C9.25573 37.1511 6.64124 39.71 6.64124 42.8667C6.64124 46.0234 9.25573 48.5823 12.481 48.5823H16.3741C19.5993 48.5823 22.2138 46.0234 22.2138 42.8667C22.2138 39.71 19.5993 37.1511 16.3741 37.1511Z" fill="#32283C"/>
<path d="M51.4099 37.1511H47.5167C44.2915 37.1511 41.677 39.71 41.677 42.8667C41.677 46.0234 44.2915 48.5823 47.5167 48.5823H51.4099C54.6351 48.5823 57.2496 46.0234 57.2496 42.8667C57.2496 39.71 54.6351 37.1511 51.4099 37.1511Z" fill="#32283C"/>
<path d="M47.5167 48.5823C50.7419 48.5823 53.3564 46.0233 53.3564 42.8667C53.3564 39.7101 50.7419 37.1511 47.5167 37.1511C44.2915 37.1511 41.677 39.7101 41.677 42.8667C41.677 46.0233 44.2915 48.5823 47.5167 48.5823Z" fill="#555A6E"/>
<path d="M47.5153 44.7718C48.5904 44.7718 49.4619 43.9188 49.4619 42.8666C49.4619 41.8144 48.5904 40.9614 47.5153 40.9614C46.4402 40.9614 45.5687 41.8144 45.5687 42.8666C45.5687 43.9188 46.4402 44.7718 47.5153 44.7718Z" fill="#E6E6EB"/>
<path d="M35.8397 37.1511H31.9465C28.7213 37.1511 26.1068 39.71 26.1068 42.8667C26.1068 46.0234 28.7213 48.5823 31.9465 48.5823H35.8397C39.0649 48.5823 41.6794 46.0234 41.6794 42.8667C41.6794 39.71 39.0649 37.1511 35.8397 37.1511Z" fill="#32283C"/>
<path d="M55.3068 18.0994H26.1082C25.0331 18.0994 24.1616 18.9523 24.1616 20.0046V21.9097H55.3068C56.3819 21.9097 57.2534 21.0568 57.2534 20.0046C57.2534 18.9523 56.3819 18.0994 55.3068 18.0994Z" fill="#A5C3DC"/>
<path d="M35.8411 18.0994H26.1082C25.0331 18.0994 24.1616 18.9523 24.1616 20.0046V21.9097H35.8411C36.9162 21.9097 37.7876 21.0568 37.7876 20.0046C37.7876 18.9523 36.9162 18.0994 35.8411 18.0994Z" fill="#D7E6F0"/>
<path d="M24.1616 21.9097H55.3068V31.4356H24.1616V21.9097Z" fill="#463C4B"/>
<path d="M24.1616 21.9097H35.8411V31.4356H24.1616V21.9097Z" fill="#555A6E"/>
<path d="M57.2534 42.8667H26.1082C25.0331 42.8667 24.1616 42.0138 24.1616 40.9615V31.4355H55.3068C57.4569 31.4355 59.2 33.1415 59.2 35.2459V40.9615C59.2 42.0138 58.3285 42.8667 57.2534 42.8667Z" fill="#A5C3DC"/>
<path d="M37.7876 42.8667H26.1082C25.0331 42.8667 24.1616 42.0138 24.1616 40.9615V31.4355H35.8411C37.9912 31.4355 39.7342 33.1415 39.7342 35.2459V40.9615C39.7342 42.0138 38.8628 42.8667 37.7876 42.8667Z" fill="#D7E6F0"/>
<path d="M44.4348 35.2461H54.4922C56.0151 35.2461 57.2497 36.4545 57.2497 37.9452C57.2497 39.4357 56.0151 40.6442 54.492 40.6442H44.4347C42.9117 40.6442 41.677 39.4358 41.677 37.9452C41.6771 36.4545 42.9117 35.2461 44.4348 35.2461Z" fill="#555A6E"/>
<path d="M44.4388 39.3739C45.2451 39.3739 45.8987 38.7342 45.8987 37.945C45.8987 37.1559 45.2451 36.5161 44.4388 36.5161C43.6325 36.5161 42.9789 37.1559 42.9789 37.945C42.9789 38.7342 43.6325 39.3739 44.4388 39.3739Z" fill="#00D2D2"/>
<path d="M54.4893 39.3739C55.2956 39.3739 55.9493 38.7342 55.9493 37.945C55.9493 37.1559 55.2956 36.5161 54.4893 36.5161C53.6831 36.5161 53.0294 37.1559 53.0294 37.945C53.0294 38.7342 53.6831 39.3739 54.4893 39.3739Z" fill="#00D2D2"/>
<path d="M19.292 0H13.4523C12.9148 0 12.479 0.426524 12.479 0.952595C12.479 1.47867 12.9148 1.90519 13.4523 1.90519C17.2089 1.90519 20.2653 4.89658 20.2653 8.57336C20.2653 9.09943 20.7011 9.52595 21.2386 9.52595H27.0783C27.6158 9.52595 28.0516 9.09943 28.0516 8.57336C28.0516 3.84598 24.1221 0 19.292 0Z" fill="#A5C3DC"/>
<path d="M34.8646 0H29.0248C24.1948 0 20.2653 3.84598 20.2653 8.57336C20.2653 9.09943 20.701 9.52595 21.2385 9.52595H27.0783C27.6158 9.52595 28.0516 9.09943 28.0516 8.57336C28.0516 4.89658 31.1079 1.90519 34.8646 1.90519C35.4021 1.90519 35.8379 1.47867 35.8379 0.952595C35.8379 0.426524 35.4021 0 34.8646 0Z" fill="#A5C3DC"/>
<path d="M38.7581 0H32.9184C32.3809 0 31.9451 0.426524 31.9451 0.952595C31.9451 1.47867 32.3809 1.90519 32.9184 1.90519C34.5284 1.90519 35.8382 3.18714 35.8382 4.76298C35.8382 6.33881 34.5284 7.62076 32.9184 7.62076C32.3809 7.62076 31.9451 8.04729 31.9451 8.57336C31.9451 9.09943 32.3809 9.52595 32.9184 9.52595H38.7581C41.4414 9.52595 43.6245 7.38928 43.6245 4.76298C43.6245 2.13667 41.4414 0 38.7581 0Z" fill="#A5C3DC"/>
<path d="M15.3979 7.62076C13.7879 7.62076 12.4781 6.33881 12.4781 4.76298C12.4781 3.18714 13.7879 1.90519 15.3979 1.90519C15.9354 1.90519 16.3712 1.47867 16.3712 0.952595C16.3712 0.426524 15.9354 0 15.3979 0H9.55821C6.87486 0 4.69177 2.13667 4.69177 4.76298C4.69177 7.38928 6.87486 9.52595 9.55821 9.52595H15.3979C15.9354 9.52595 16.3712 9.09943 16.3712 8.57336C16.3712 8.04729 15.9354 7.62076 15.3979 7.62076Z" fill="#A5C3DC"/>
<path d="M45.5713 9.52588H2.74662C1.67151 9.52588 0.800049 10.3788 0.800049 11.4311V14.2889C0.800049 15.3411 1.67151 16.194 2.74662 16.194H45.5713C46.6464 16.194 47.5178 15.3411 47.5178 14.2889V11.4311C47.5178 10.3788 46.6464 9.52588 45.5713 9.52588Z" fill="#289BC3"/>
<path d="M22.2109 42.8668H6.63835C5.56323 42.8668 4.69177 42.0138 4.69177 40.9616V21.9097H24.1575V40.9616C24.1575 42.0138 23.2861 42.8668 22.2109 42.8668Z" fill="#00D2D2"/>
<path d="M24.1589 9.52588H2.74662C1.67151 9.52588 0.800049 10.3788 0.800049 11.4311V14.2889C0.800049 15.3411 1.67151 16.194 2.74662 16.194H24.1589C25.2341 16.194 26.1055 15.3411 26.1055 14.2889V11.4311C26.1055 10.3788 25.2341 9.52588 24.1589 9.52588Z" fill="#00D2D2"/>
<path d="M14.4233 14.2889C14.4233 15.3411 15.2948 16.194 16.3699 16.194H10.5302C9.45508 16.194 8.58362 15.3411 8.58362 14.2889V11.4311C8.58362 10.3788 9.45508 9.52588 10.5302 9.52588H16.3699C15.2948 9.52588 14.4233 10.3788 14.4233 11.4311V14.2889Z" fill="#D7E6F0"/>
<path d="M33.8953 14.2889C33.8953 15.3411 33.0238 16.194 31.9487 16.194H37.7885C38.8636 16.194 39.735 15.3411 39.735 14.2889V11.4311C39.735 10.3788 38.8636 9.52588 37.7885 9.52588H31.9487C33.0238 9.52588 33.8953 10.3788 33.8953 11.4311V14.2889Z" fill="#A5C3DC"/>
<path d="M32.9221 9.52595H20.2694V8.57336C20.2694 3.84598 24.1989 0 29.029 0H32.9221C35.6055 0 37.7886 2.13667 37.7886 4.76298C37.7886 7.38928 35.6055 9.52595 32.9221 9.52595ZM22.2853 7.62076H32.9221C34.5322 7.62076 35.842 6.33881 35.842 4.76298C35.842 3.18714 34.5322 1.90519 32.9221 1.90519H29.029C25.6027 1.90519 22.759 4.39349 22.2853 7.62076Z" fill="#D7E6F0"/>
<path d="M22.2109 9.52595H9.55821C6.87486 9.52595 4.69177 7.38928 4.69177 4.76298C4.69177 2.13667 6.87486 0 9.55821 0H13.4514C18.2814 0 22.2109 3.84598 22.2109 8.57336V9.52595ZM9.55821 1.90519C7.94815 1.90519 6.63835 3.18714 6.63835 4.76298C6.63835 6.33881 7.94815 7.62076 9.55821 7.62076H20.195C19.7213 4.39349 16.8776 1.90519 13.4514 1.90519H9.55821Z" fill="#D7E6F0"/>
<path d="M31.9465 48.5823C35.1717 48.5823 37.7863 46.0233 37.7863 42.8667C37.7863 39.7101 35.1717 37.1511 31.9465 37.1511C28.7213 37.1511 26.1068 39.7101 26.1068 42.8667C26.1068 46.0233 28.7213 48.5823 31.9465 48.5823Z" fill="#555A6E"/>
<path d="M31.9454 44.7718C33.0204 44.7718 33.8919 43.9188 33.8919 42.8666C33.8919 41.8144 33.0204 40.9614 31.9454 40.9614C30.8703 40.9614 29.9988 41.8144 29.9988 42.8666C29.9988 43.9188 30.8703 44.7718 31.9454 44.7718Z" fill="#E6E6EB"/>
<path d="M12.481 48.5823C15.7061 48.5823 18.3207 46.0233 18.3207 42.8667C18.3207 39.7101 15.7061 37.1511 12.481 37.1511C9.25577 37.1511 6.64124 39.7101 6.64124 42.8667C6.64124 46.0233 9.25577 48.5823 12.481 48.5823Z" fill="#555A6E"/>
<path d="M12.4757 44.7718C13.5508 44.7718 14.4223 43.9188 14.4223 42.8666C14.4223 41.8144 13.5508 40.9614 12.4757 40.9614C11.4007 40.9614 10.5292 41.8144 10.5292 42.8666C10.5292 43.9188 11.4007 44.7718 12.4757 44.7718Z" fill="#E6E6EB"/>
</svg>
