<svg width="46" height="45" viewBox="0 0 46 45" fill="none" xmlns="http://www.w3.org/2000/svg">
<path d="M22.6399 19.766L3.29529 22.3782L10.5555 43.5897C10.766 44.1643 11.4674 44.5823 12.2741 44.5823H33.3183C34.1249 44.5823 34.8265 44.1643 35.0369 43.5897L42.2974 22.3782L22.6399 19.766ZM19.2889 15.8476C20.2582 15.8476 21.0425 15.2634 21.0425 14.5415V1.30612C21.0425 0.584185 20.2582 0 19.2889 0C18.3195 0 17.5352 0.584185 17.5352 1.30612V14.5415C17.5352 15.2634 18.3195 15.8476 19.2889 15.8476ZM26.3036 15.8476C27.2729 15.8476 28.0573 15.2634 28.0573 14.5415V1.30612C28.0573 0.584185 27.2729 0 26.3036 0C25.3343 0 24.5499 0.584185 24.5499 1.30612V14.5415C24.5499 15.2634 25.3343 15.8476 26.3036 15.8476Z" fill="url(#paint0_linear_1_426)"/>
<path d="M44.6156 15.9782C43.7739 15.6647 42.7215 15.9259 42.2659 16.5789L40.1261 19.766L34.795 13.81C34.4444 13.4442 33.9182 13.2354 33.3221 13.2354H12.2779C11.6816 13.2354 11.1555 13.4442 10.8048 13.81L5.47361 19.766L3.33412 16.5789C2.87816 15.9259 1.82595 15.6647 0.984302 15.9782C0.107462 16.3178 -0.243391 17.1015 0.177492 17.7283L3.29904 22.3782H42.3011L45.4223 17.7283C45.8436 17.1014 45.4925 16.3178 44.6156 15.9782ZM22.8 28.9088C19.8989 28.9088 17.5389 30.6665 17.5389 32.8272C17.5389 34.9879 19.8989 36.7456 22.8 36.7456C25.701 36.7456 28.061 34.9879 28.061 32.8272C28.061 30.6665 25.701 28.9088 22.8 28.9088Z" fill="url(#paint1_linear_1_426)"/>
<defs>
<linearGradient id="paint0_linear_1_426" x1="22.7963" y1="44.5823" x2="22.7963" y2="0" gradientUnits="userSpaceOnUse">
<stop stop-color="#FD3A84"/>
<stop offset="1" stop-color="#FFA68D"/>
</linearGradient>
<linearGradient id="paint1_linear_1_426" x1="22.8" y1="36.7456" x2="22.8" y2="13.2354" gradientUnits="userSpaceOnUse">
<stop stop-color="#FFC2CC"/>
<stop offset="1" stop-color="#FFF2F4"/>
</linearGradient>
</defs>
</svg>
